<svg width="778" height="778" viewBox="0 0 778 778" fill="none" xmlns="http://www.w3.org/2000/svg">
<rect y="388.909" width="550" height="550" transform="rotate(-45 0 388.909)" fill="#D9D9D9"/>
<rect x="19.4142" y="388.557" width="523.46" height="523.042" transform="rotate(-45 19.4142 388.557)" stroke="black" stroke-opacity="0.55" stroke-width="2"/>
<ellipse cx="389" cy="387.5" rx="74" ry="67.5" fill="black" stroke="#3E3E3E" stroke-width="2"/>
<path d="M353.416 397.638C353.416 397.56 353.325 397.404 353.143 397.17C352.987 396.936 352.818 396.689 352.636 396.429C352.454 396.169 352.311 395.987 352.207 395.883C351.609 395.181 351.258 394.596 351.154 394.128C351.128 393.92 351.024 393.465 350.842 392.763C350.66 392.035 350.452 391.203 350.218 390.267C349.984 389.305 349.75 388.382 349.516 387.498C349.308 386.614 349.126 385.912 348.97 385.392C348.606 384.066 348.151 382.454 347.605 380.556C347.085 378.632 346.461 376.448 345.733 374.004C345.499 375.356 345.278 376.708 345.07 378.06C344.862 379.412 344.654 380.764 344.446 382.116C344.186 384.014 343.965 385.652 343.783 387.03C343.627 388.408 343.523 389.526 343.471 390.384C343.445 390.722 343.419 391.034 343.393 391.32C343.393 391.58 343.393 391.84 343.393 392.1C343.393 392.958 343.497 393.608 343.705 394.05C343.939 394.492 344.329 394.791 344.875 394.947C345.447 395.077 346.24 395.142 347.254 395.142L346.63 396.312C346.552 396.286 346.227 396.234 345.655 396.156C345.083 396.104 344.42 396.052 343.666 396C342.938 395.922 342.301 395.883 341.755 395.883C341.105 395.883 340.429 395.922 339.727 396C339.051 396.052 338.44 396.13 337.894 396.234C337.374 396.338 337.023 396.429 336.841 396.507L337.543 395.298C339.155 395.298 340.091 394.817 340.351 393.855C340.897 391.853 341.365 389.903 341.755 388.005C342.145 386.081 342.483 384.144 342.769 382.194L344.329 371.859C344.303 371.339 344.108 371.001 343.744 370.845C343.38 370.663 342.964 370.572 342.496 370.572C342.288 370.572 342.08 370.585 341.872 370.611C341.664 370.611 341.456 370.624 341.248 370.65L341.833 369.48C342.665 369.636 343.692 369.753 344.914 369.831C346.162 369.883 347.397 369.896 348.619 369.87C348.593 370.182 348.606 370.637 348.658 371.235C348.736 371.807 348.866 372.587 349.048 373.575C349.36 375.187 349.763 376.981 350.257 378.957C350.751 380.907 351.349 383.039 352.051 385.353C352.259 386.055 352.506 386.952 352.792 388.044C353.104 389.11 353.507 390.488 354.001 392.178C354.703 390.748 355.47 389.123 356.302 387.303C357.134 385.483 358.096 383.299 359.188 380.751C360.488 377.761 361.476 375.369 362.152 373.575C362.828 371.781 363.179 370.572 363.205 369.948C364.505 369.922 365.818 369.896 367.144 369.87C368.496 369.818 370.056 369.649 371.824 369.363L371.005 370.494C370.901 370.468 370.784 370.455 370.654 370.455C370.55 370.429 370.433 370.416 370.303 370.416C369.887 370.416 369.497 370.481 369.133 370.611C368.769 370.741 368.509 370.91 368.353 371.118C368.145 371.404 368.002 371.794 367.924 372.288C367.872 372.782 367.82 373.432 367.768 374.238C367.716 375.148 367.664 376.292 367.612 377.67C367.586 379.048 367.573 380.504 367.573 382.038C367.573 383.52 367.586 385.015 367.612 386.523C367.664 388.005 367.729 389.37 367.807 390.618C367.885 391.84 367.976 392.828 368.08 393.582C368.184 394.154 368.561 394.557 369.211 394.791C369.887 395.025 370.602 395.142 371.356 395.142C371.538 395.142 371.707 395.142 371.863 395.142C372.019 395.142 372.175 395.129 372.331 395.103L371.707 396.273C371.447 396.221 370.771 396.143 369.679 396.039C368.587 395.961 367.287 395.922 365.779 395.922C365.129 395.922 364.362 395.948 363.478 396C362.594 396.052 361.762 396.104 360.982 396.156C360.228 396.234 359.682 396.299 359.344 396.351L359.929 395.22C360.059 395.246 360.189 395.272 360.319 395.298C360.475 395.298 360.631 395.298 360.787 395.298C361.567 395.298 362.308 395.142 363.01 394.83C363.738 394.492 364.154 394.037 364.258 393.465C364.362 392.789 364.427 391.788 364.453 390.462C364.505 389.136 364.531 387.641 364.531 385.977C364.531 384.599 364.518 383.182 364.492 381.726C364.466 380.27 364.44 378.853 364.414 377.475C364.388 376.071 364.349 374.81 364.297 373.692C363.725 374.836 363.14 376.019 362.542 377.241C361.944 378.437 361.385 379.581 360.865 380.673C360.371 381.765 359.942 382.701 359.578 383.481C358.356 386.159 357.355 388.408 356.575 390.228C355.821 392.048 355.249 393.53 354.859 394.674C354.469 395.792 354.196 396.663 354.04 397.287L353.416 397.638ZM381.922 396.468C379.192 396.468 377.307 395.818 376.267 394.518C375.253 393.218 374.746 391.294 374.746 388.746C374.746 387.368 374.876 385.977 375.136 384.573C375.422 383.169 375.877 381.947 376.501 380.907C377.983 378.281 380.739 376.968 384.769 376.968C387.109 376.968 388.838 377.527 389.956 378.645C391.022 379.711 391.477 381.154 391.321 382.974C391.217 383.13 391.061 383.338 390.853 383.598C390.645 383.832 390.385 384.131 390.073 384.495C389.735 384.937 389.436 385.288 389.176 385.548C388.942 385.782 388.76 385.886 388.63 385.86C388.344 385.834 388.032 385.821 387.694 385.821C387.382 385.795 387.057 385.782 386.719 385.782C386.121 385.782 385.575 385.795 385.081 385.821C384.587 385.821 384.08 385.821 383.56 385.821C383.014 385.821 382.364 385.834 381.61 385.86C380.856 385.886 380.154 385.925 379.504 385.977C378.854 386.003 378.399 386.029 378.139 386.055C378.061 387.095 378.022 388.031 378.022 388.863C378.022 390.865 378.373 392.373 379.075 393.387C379.803 394.401 381.155 394.908 383.131 394.908C386.563 394.908 388.708 393.335 389.566 390.189C389.592 390.059 389.605 389.942 389.605 389.838C389.605 389.734 389.618 389.656 389.644 389.604L390.814 389.058C390.788 389.292 390.736 389.643 390.658 390.111C390.606 390.579 390.541 391.203 390.463 391.983C390.463 392.243 390.463 392.529 390.463 392.841C390.463 393.153 390.45 393.504 390.424 393.894C390.346 394.232 390.138 394.531 389.8 394.791C389.202 395.363 388.227 395.779 386.875 396.039C385.549 396.325 383.898 396.468 381.922 396.468ZM380.947 384.3C381.233 384.3 381.545 384.3 381.883 384.3C382.247 384.3 382.624 384.287 383.014 384.261C384.106 384.235 385.042 384.196 385.822 384.144C386.628 384.092 387.278 384.04 387.772 383.988C388.188 383.91 388.435 383.533 388.513 382.857C388.513 381.453 388.136 380.374 387.382 379.62C386.628 378.84 385.549 378.45 384.145 378.45C381.415 378.45 379.634 379.698 378.802 382.194C378.698 382.558 378.607 382.883 378.529 383.169C378.477 383.455 378.425 383.78 378.373 384.144C378.633 384.196 378.971 384.235 379.387 384.261C379.829 384.287 380.349 384.3 380.947 384.3ZM406.201 396.312L406.942 395.025C407.384 395.051 407.865 394.96 408.385 394.752C408.905 394.518 409.256 394.18 409.438 393.738C409.594 393.426 409.711 392.997 409.789 392.451C409.893 391.905 409.984 391.229 410.062 390.423C410.192 388.655 410.283 387.277 410.335 386.289C410.413 385.301 410.465 384.573 410.491 384.105C410.517 383.637 410.53 383.286 410.53 383.052C410.53 380.14 409.568 378.684 407.644 378.684C407.02 378.684 406.435 378.775 405.889 378.957C405.369 379.139 404.849 379.36 404.329 379.62C403.263 380.166 402.457 380.764 401.911 381.414L401.638 385.275C401.534 386.783 401.456 388.096 401.404 389.214C401.378 390.332 401.365 391.268 401.365 392.022C401.365 392.36 401.365 392.659 401.365 392.919C401.365 393.153 401.378 393.361 401.404 393.543C401.508 394.609 402.509 395.129 404.407 395.103L403.783 396.273C403.159 396.013 401.781 395.87 399.649 395.844C399.441 395.844 398.791 395.883 397.699 395.961C396.633 396.039 395.138 396.143 393.214 396.273L393.799 395.181C396.295 395.181 397.712 394.635 398.05 393.543C398.18 393.101 398.323 392.204 398.479 390.852C398.635 389.5 398.804 387.628 398.986 385.236C399.038 384.56 399.077 383.936 399.103 383.364C399.129 382.766 399.142 382.22 399.142 381.726C399.142 380.634 399.09 379.828 398.986 379.308C398.882 378.788 398.609 378.463 398.167 378.333C397.751 378.177 397.062 378.099 396.1 378.099C395.788 378.099 395.515 378.112 395.281 378.138C395.047 378.164 394.826 378.216 394.618 378.294L395.281 377.124C395.359 377.15 395.736 377.189 396.412 377.241C397.114 377.267 397.946 377.28 398.908 377.28C399.506 377.28 400.078 377.267 400.624 377.241C401.196 377.189 401.625 377.163 401.911 377.163C402.301 377.163 402.496 377.358 402.496 377.748C402.496 377.956 402.431 378.294 402.301 378.762C402.171 379.204 402.106 379.503 402.106 379.659C402.574 379.373 403.003 379.126 403.393 378.918C403.809 378.684 404.186 378.45 404.524 378.216C405.876 377.254 407.397 376.773 409.087 376.773C409.555 376.773 409.984 376.812 410.374 376.89C412.532 377.202 413.611 378.216 413.611 379.932C413.611 380.374 413.585 380.881 413.533 381.453C413.481 382.025 413.442 382.649 413.416 383.325C413.39 383.585 413.351 384.105 413.299 384.885C413.273 385.639 413.234 386.484 413.182 387.42C413.156 388.33 413.13 389.149 413.104 389.877C413.078 390.605 413.065 391.073 413.065 391.281C413.065 392.425 413.117 393.27 413.221 393.816C413.351 394.362 413.676 394.713 414.196 394.869C414.716 395.025 415.548 395.116 416.692 395.142C417.238 395.142 417.641 395.116 417.901 395.064L417.238 396.234C416.25 396.13 415.288 396.052 414.352 396C413.416 395.948 412.506 395.922 411.622 395.922C410.894 395.948 410.075 395.987 409.165 396.039C408.255 396.091 407.267 396.182 406.201 396.312ZM426.469 396.663C425.169 396.663 424.09 396.416 423.232 395.922C422.374 395.428 421.945 394.596 421.945 393.426C421.945 392.88 421.971 392.126 422.023 391.164C422.075 390.202 422.14 389.149 422.218 388.005C422.296 386.835 422.361 385.691 422.413 384.573C422.465 383.429 422.491 382.402 422.491 381.492C422.491 381.128 422.478 380.79 422.452 380.478C422.452 380.166 422.439 379.893 422.413 379.659C422.309 378.723 421.516 378.255 420.034 378.255C419.8 378.255 419.553 378.268 419.293 378.294C419.059 378.32 418.864 378.346 418.708 378.372L419.371 377.202C420.255 377.306 421.126 377.384 421.984 377.436C422.842 377.488 423.687 377.514 424.519 377.514C425.351 377.514 426.157 377.488 426.937 377.436C427.743 377.384 428.536 377.319 429.316 377.241L428.653 378.333C428.601 378.333 428.536 378.333 428.458 378.333C428.406 378.307 428.354 378.294 428.302 378.294C427.548 378.294 426.976 378.528 426.586 378.996C426.196 379.438 425.923 380.023 425.767 380.751C425.611 381.479 425.507 382.246 425.455 383.052C425.325 384.82 425.221 386.198 425.143 387.186C425.091 388.174 425.052 388.889 425.026 389.331C425 389.773 424.987 390.098 424.987 390.306C424.987 393.27 425.949 394.752 427.873 394.752C428.549 394.752 429.264 394.622 430.018 394.362C430.772 394.076 431.474 393.725 432.124 393.309C432.8 392.867 433.294 392.438 433.606 392.022C433.814 389.24 433.957 387.03 434.035 385.392C434.139 383.728 434.191 382.428 434.191 381.492C434.191 381.154 434.178 380.855 434.152 380.595C434.152 380.335 434.139 380.101 434.113 379.893C433.983 378.801 432.982 378.268 431.11 378.294L431.812 377.319C431.89 377.397 432.176 377.462 432.67 377.514C433.19 377.54 433.775 377.566 434.425 377.592C435.075 377.592 435.634 377.592 436.102 377.592C437.012 377.592 437.948 377.553 438.91 377.475C439.872 377.397 440.548 377.345 440.938 377.319L440.431 378.333C440.197 378.255 439.976 378.216 439.768 378.216C438.572 378.216 437.818 378.775 437.506 379.893C437.35 380.413 437.207 381.115 437.077 381.999C436.947 382.857 436.843 383.806 436.765 384.846C436.687 385.886 436.622 386.939 436.57 388.005C436.544 389.045 436.531 389.994 436.531 390.852C436.531 391.19 436.531 391.515 436.531 391.827C436.531 392.113 436.544 392.386 436.57 392.646C436.622 393.556 436.843 394.193 437.233 394.557C437.623 394.895 438.208 395.064 438.988 395.064C439.3 395.064 439.638 395.038 440.002 394.986C440.392 394.934 440.795 394.882 441.211 394.83L440.275 396.234C439.885 396.234 439.287 396.221 438.481 396.195C437.701 396.169 436.843 396.156 435.907 396.156C435.335 396.156 434.828 396.182 434.386 396.234C433.944 396.286 433.697 396.312 433.645 396.312C433.463 396.312 433.307 396.26 433.177 396.156C433.073 396.078 433.034 395.961 433.06 395.805C433.138 395.389 433.203 394.986 433.255 394.596C433.333 394.206 433.385 393.933 433.411 393.777C432.267 394.453 431.344 395.012 430.642 395.454C429.966 395.87 429.329 396.169 428.731 396.351C428.133 396.559 427.379 396.663 426.469 396.663Z" fill="white"/>
<path d="M336.841 400.875H441.172V402.825H336.841V400.875Z" fill="white"/>
<line x1="314.607" y1="320.309" x2="226.607" y2="208.309" stroke="black"/>
<line x1="550.607" y1="567.309" x2="462.607" y2="455.309" stroke="black"/>
<line y1="-0.5" x2="142.436" y2="-0.5" transform="matrix(0.617822 -0.786318 -0.786318 -0.617822 463 320)" stroke="black"/>
<line y1="-0.5" x2="142.436" y2="-0.5" transform="matrix(0.617822 -0.786318 -0.786318 -0.617822 227 567)" stroke="black"/>
<path d="M671.699 388.5C670.674 388.5 669.82 388.116 669.136 387.347C668.453 386.578 668.183 385.681 668.325 384.656L668.88 380.471C669.108 378.848 669.848 377.502 671.101 376.434C672.354 375.366 673.82 374.832 675.5 374.833C677.18 374.833 678.646 375.367 679.899 376.436C681.152 377.504 681.892 378.849 682.12 380.471L682.675 384.656C682.817 385.681 682.547 386.578 681.864 387.347C681.18 388.116 680.326 388.5 679.301 388.5H671.699ZM671.699 385.083H679.301L678.746 380.983C678.632 380.186 678.269 379.531 677.658 379.019C677.046 378.506 676.327 378.25 675.5 378.25C674.674 378.25 673.955 378.506 673.342 379.019C672.73 379.531 672.367 380.186 672.254 380.983L671.699 385.083ZM661.833 402.167V397.383C661.833 396.415 662.083 395.526 662.582 394.715C663.08 393.904 663.742 393.284 664.567 392.856C666.332 391.974 668.126 391.312 669.948 390.871C671.77 390.43 673.621 390.209 675.5 390.208C677.379 390.208 679.23 390.429 681.052 390.871C682.874 391.313 684.668 391.975 686.433 392.856C687.259 393.283 687.921 393.903 688.42 394.715C688.919 395.527 689.168 396.416 689.167 397.383V402.167H661.833ZM665.25 398.75H685.75V397.383C685.75 397.07 685.672 396.785 685.516 396.529C685.36 396.273 685.153 396.074 684.896 395.931C683.358 395.163 681.807 394.586 680.241 394.202C678.675 393.819 677.094 393.626 675.5 393.625C673.906 393.625 672.325 393.817 670.759 394.202C669.193 394.587 667.642 395.164 666.104 395.931C665.848 396.074 665.641 396.273 665.484 396.529C665.327 396.785 665.249 397.07 665.25 397.383V398.75Z" fill="black"/>
<path d="M379.884 603.458C379.098 603.458 378.442 603.195 377.916 602.669C377.389 602.142 377.125 601.485 377.125 600.699V582.301C377.125 581.515 377.389 580.859 377.916 580.333C378.442 579.805 379.098 579.542 379.884 579.542H405.116C405.902 579.542 406.558 579.805 407.084 580.333C407.611 580.859 407.875 581.515 407.875 582.301V600.699C407.875 601.485 407.612 602.141 407.086 602.667C406.558 603.195 405.902 603.458 405.116 603.458H379.884ZM392.5 591.696L378.833 582.762V600.699C378.833 601.006 378.932 601.257 379.129 601.454C379.326 601.651 379.578 601.75 379.884 601.75H405.116C405.422 601.75 405.674 601.651 405.871 601.454C406.068 601.257 406.167 601.006 406.167 600.699V582.762L392.5 591.696ZM392.5 589.792L405.64 581.25H379.36L392.5 589.792ZM378.833 582.762V581.25V600.699C378.833 601.006 378.932 601.257 379.129 601.454C379.326 601.651 379.578 601.75 379.884 601.75H378.833V582.762Z" fill="black"/>
<path fill-rule="evenodd" clip-rule="evenodd" d="M377.125 161.406C376.785 161.406 376.459 161.541 376.219 161.782C375.979 162.022 375.844 162.348 375.844 162.688V165.25C375.844 165.59 375.979 165.916 376.219 166.156C376.459 166.396 376.785 166.531 377.125 166.531H379.688C380.027 166.531 380.353 166.396 380.593 166.156C380.834 165.916 380.969 165.59 380.969 165.25V162.688C380.969 162.348 380.834 162.022 380.593 161.782C380.353 161.541 380.027 161.406 379.688 161.406H377.125ZM379.688 162.688H377.125V165.25H379.688V162.688Z" fill="black"/>
<path d="M384.812 163.969C384.812 163.629 384.947 163.303 385.188 163.063C385.428 162.822 385.754 162.688 386.094 162.688H409.156C409.496 162.688 409.822 162.822 410.062 163.063C410.303 163.303 410.438 163.629 410.438 163.969C410.438 164.309 410.303 164.634 410.062 164.875C409.822 165.115 409.496 165.25 409.156 165.25H386.094C385.754 165.25 385.428 165.115 385.188 164.875C384.947 164.634 384.812 164.309 384.812 163.969ZM386.094 172.938C385.754 172.938 385.428 173.072 385.188 173.313C384.947 173.553 384.812 173.879 384.812 174.219C384.812 174.559 384.947 174.884 385.188 175.125C385.428 175.365 385.754 175.5 386.094 175.5H409.156C409.496 175.5 409.822 175.365 410.062 175.125C410.303 174.884 410.438 174.559 410.438 174.219C410.438 173.879 410.303 173.553 410.062 173.313C409.822 173.072 409.496 172.938 409.156 172.938H386.094ZM386.094 183.188C385.754 183.188 385.428 183.322 385.188 183.563C384.947 183.803 384.812 184.129 384.812 184.469C384.812 184.809 384.947 185.134 385.188 185.375C385.428 185.615 385.754 185.75 386.094 185.75H409.156C409.496 185.75 409.822 185.615 410.062 185.375C410.303 185.134 410.438 184.809 410.438 184.469C410.438 184.129 410.303 183.803 410.062 183.563C409.822 183.322 409.496 183.188 409.156 183.188H386.094Z" fill="black"/>
<path fill-rule="evenodd" clip-rule="evenodd" d="M375.844 172.938C375.844 172.598 375.979 172.272 376.219 172.032C376.459 171.791 376.785 171.656 377.125 171.656H379.688C380.027 171.656 380.353 171.791 380.593 172.032C380.834 172.272 380.969 172.598 380.969 172.938V175.5C380.969 175.84 380.834 176.166 380.593 176.406C380.353 176.646 380.027 176.781 379.688 176.781H377.125C376.785 176.781 376.459 176.646 376.219 176.406C375.979 176.166 375.844 175.84 375.844 175.5V172.938ZM377.125 172.938H379.688V175.5H377.125V172.938ZM377.125 181.906C376.785 181.906 376.459 182.041 376.219 182.282C375.979 182.522 375.844 182.848 375.844 183.188V185.75C375.844 186.09 375.979 186.416 376.219 186.656C376.459 186.896 376.785 187.031 377.125 187.031H379.688C380.027 187.031 380.353 186.896 380.593 186.656C380.834 186.416 380.969 186.09 380.969 185.75V183.188C380.969 182.848 380.834 182.522 380.593 182.282C380.353 182.041 380.027 181.906 379.688 181.906H377.125ZM379.688 183.188H377.125V185.75H379.688V183.188Z" fill="black"/>
<path d="M139.758 371.286L118.897 367.603C118.228 367.485 117.54 367.638 116.983 368.027C116.427 368.417 116.048 369.012 115.93 369.681L111.165 396.748C111.107 397.079 111.114 397.419 111.187 397.748C111.261 398.076 111.398 398.387 111.591 398.663C111.784 398.939 112.03 399.173 112.314 399.354C112.598 399.535 112.915 399.657 113.247 399.715L134.107 403.399C134.439 403.458 134.779 403.45 135.108 403.377C135.437 403.304 135.748 403.167 136.024 402.974C136.299 402.78 136.534 402.534 136.715 402.25C136.896 401.966 137.019 401.649 137.077 401.317L141.841 374.251C141.958 373.581 141.804 372.893 141.413 372.337C141.023 371.781 140.427 371.403 139.758 371.286ZM134.549 400.875L113.687 397.191L118.452 370.125L139.312 373.809L134.549 400.875ZM120.308 374.356C120.368 374.022 120.557 373.725 120.836 373.53C121.114 373.335 121.459 373.259 121.793 373.319L135.086 375.665C135.402 375.72 135.686 375.892 135.881 376.146C136.076 376.401 136.169 376.719 136.141 377.039C136.113 377.358 135.967 377.655 135.73 377.872C135.493 378.089 135.184 378.208 134.863 378.208C134.788 378.208 134.713 378.202 134.639 378.189L121.346 375.841C121.012 375.782 120.715 375.592 120.52 375.313C120.325 375.035 120.249 374.691 120.308 374.356ZM119.421 379.404C119.45 379.239 119.512 379.08 119.602 378.938C119.693 378.796 119.81 378.674 119.948 378.577C120.086 378.481 120.241 378.412 120.406 378.376C120.57 378.339 120.74 378.336 120.906 378.365L134.199 380.713C134.517 380.766 134.803 380.937 135.001 381.192C135.198 381.448 135.292 381.768 135.264 382.089C135.235 382.41 135.087 382.709 134.848 382.926C134.609 383.143 134.297 383.261 133.974 383.258C133.899 383.258 133.823 383.251 133.749 383.237L120.456 380.891C120.121 380.831 119.825 380.64 119.631 380.362C119.437 380.083 119.361 379.739 119.421 379.404ZM118.532 384.451C118.593 384.117 118.783 383.821 119.061 383.628C119.339 383.434 119.683 383.359 120.017 383.418L126.66 384.586C126.976 384.641 127.26 384.813 127.455 385.067C127.65 385.321 127.743 385.639 127.715 385.958C127.688 386.278 127.541 386.575 127.305 386.792C127.069 387.009 126.76 387.129 126.439 387.129C126.364 387.129 126.289 387.122 126.215 387.11L119.568 385.936C119.234 385.876 118.937 385.686 118.743 385.408C118.549 385.129 118.473 384.785 118.532 384.451Z" fill="black"/>
</svg>
