<svg width="778" height="778" viewBox="0 0 778 778" fill="none" xmlns="http://www.w3.org/2000/svg">
<rect y="388.909" width="550" height="550" transform="rotate(-45 0 388.909)" fill="#D9D9D9"/>
<rect x="19.4142" y="388.557" width="523.46" height="523.042" transform="rotate(-45 19.4142 388.557)" stroke="black" stroke-opacity="0.55" stroke-width="2"/>
<ellipse cx="389" cy="387.5" rx="74" ry="67.5" fill="black" stroke="#3E3E3E" stroke-width="2"/>
<path d="M353.416 397.638C353.416 397.56 353.325 397.404 353.143 397.17C352.987 396.936 352.818 396.689 352.636 396.429C352.454 396.169 352.311 395.987 352.207 395.883C351.609 395.181 351.258 394.596 351.154 394.128C351.128 393.92 351.024 393.465 350.842 392.763C350.66 392.035 350.452 391.203 350.218 390.267C349.984 389.305 349.75 388.382 349.516 387.498C349.308 386.614 349.126 385.912 348.97 385.392C348.606 384.066 348.151 382.454 347.605 380.556C347.085 378.632 346.461 376.448 345.733 374.004C345.499 375.356 345.278 376.708 345.07 378.06C344.862 379.412 344.654 380.764 344.446 382.116C344.186 384.014 343.965 385.652 343.783 387.03C343.627 388.408 343.523 389.526 343.471 390.384C343.445 390.722 343.419 391.034 343.393 391.32C343.393 391.58 343.393 391.84 343.393 392.1C343.393 392.958 343.497 393.608 343.705 394.05C343.939 394.492 344.329 394.791 344.875 394.947C345.447 395.077 346.24 395.142 347.254 395.142L346.63 396.312C346.552 396.286 346.227 396.234 345.655 396.156C345.083 396.104 344.42 396.052 343.666 396C342.938 395.922 342.301 395.883 341.755 395.883C341.105 395.883 340.429 395.922 339.727 396C339.051 396.052 338.44 396.13 337.894 396.234C337.374 396.338 337.023 396.429 336.841 396.507L337.543 395.298C339.155 395.298 340.091 394.817 340.351 393.855C340.897 391.853 341.365 389.903 341.755 388.005C342.145 386.081 342.483 384.144 342.769 382.194L344.329 371.859C344.303 371.339 344.108 371.001 343.744 370.845C343.38 370.663 342.964 370.572 342.496 370.572C342.288 370.572 342.08 370.585 341.872 370.611C341.664 370.611 341.456 370.624 341.248 370.65L341.833 369.48C342.665 369.636 343.692 369.753 344.914 369.831C346.162 369.883 347.397 369.896 348.619 369.87C348.593 370.182 348.606 370.637 348.658 371.235C348.736 371.807 348.866 372.587 349.048 373.575C349.36 375.187 349.763 376.981 350.257 378.957C350.751 380.907 351.349 383.039 352.051 385.353C352.259 386.055 352.506 386.952 352.792 388.044C353.104 389.11 353.507 390.488 354.001 392.178C354.703 390.748 355.47 389.123 356.302 387.303C357.134 385.483 358.096 383.299 359.188 380.751C360.488 377.761 361.476 375.369 362.152 373.575C362.828 371.781 363.179 370.572 363.205 369.948C364.505 369.922 365.818 369.896 367.144 369.87C368.496 369.818 370.056 369.649 371.824 369.363L371.005 370.494C370.901 370.468 370.784 370.455 370.654 370.455C370.55 370.429 370.433 370.416 370.303 370.416C369.887 370.416 369.497 370.481 369.133 370.611C368.769 370.741 368.509 370.91 368.353 371.118C368.145 371.404 368.002 371.794 367.924 372.288C367.872 372.782 367.82 373.432 367.768 374.238C367.716 375.148 367.664 376.292 367.612 377.67C367.586 379.048 367.573 380.504 367.573 382.038C367.573 383.52 367.586 385.015 367.612 386.523C367.664 388.005 367.729 389.37 367.807 390.618C367.885 391.84 367.976 392.828 368.08 393.582C368.184 394.154 368.561 394.557 369.211 394.791C369.887 395.025 370.602 395.142 371.356 395.142C371.538 395.142 371.707 395.142 371.863 395.142C372.019 395.142 372.175 395.129 372.331 395.103L371.707 396.273C371.447 396.221 370.771 396.143 369.679 396.039C368.587 395.961 367.287 395.922 365.779 395.922C365.129 395.922 364.362 395.948 363.478 396C362.594 396.052 361.762 396.104 360.982 396.156C360.228 396.234 359.682 396.299 359.344 396.351L359.929 395.22C360.059 395.246 360.189 395.272 360.319 395.298C360.475 395.298 360.631 395.298 360.787 395.298C361.567 395.298 362.308 395.142 363.01 394.83C363.738 394.492 364.154 394.037 364.258 393.465C364.362 392.789 364.427 391.788 364.453 390.462C364.505 389.136 364.531 387.641 364.531 385.977C364.531 384.599 364.518 383.182 364.492 381.726C364.466 380.27 364.44 378.853 364.414 377.475C364.388 376.071 364.349 374.81 364.297 373.692C363.725 374.836 363.14 376.019 362.542 377.241C361.944 378.437 361.385 379.581 360.865 380.673C360.371 381.765 359.942 382.701 359.578 383.481C358.356 386.159 357.355 388.408 356.575 390.228C355.821 392.048 355.249 393.53 354.859 394.674C354.469 395.792 354.196 396.663 354.04 397.287L353.416 397.638ZM381.922 396.468C379.192 396.468 377.307 395.818 376.267 394.518C375.253 393.218 374.746 391.294 374.746 388.746C374.746 387.368 374.876 385.977 375.136 384.573C375.422 383.169 375.877 381.947 376.501 380.907C377.983 378.281 380.739 376.968 384.769 376.968C387.109 376.968 388.838 377.527 389.956 378.645C391.022 379.711 391.477 381.154 391.321 382.974C391.217 383.13 391.061 383.338 390.853 383.598C390.645 383.832 390.385 384.131 390.073 384.495C389.735 384.937 389.436 385.288 389.176 385.548C388.942 385.782 388.76 385.886 388.63 385.86C388.344 385.834 388.032 385.821 387.694 385.821C387.382 385.795 387.057 385.782 386.719 385.782C386.121 385.782 385.575 385.795 385.081 385.821C384.587 385.821 384.08 385.821 383.56 385.821C383.014 385.821 382.364 385.834 381.61 385.86C380.856 385.886 380.154 385.925 379.504 385.977C378.854 386.003 378.399 386.029 378.139 386.055C378.061 387.095 378.022 388.031 378.022 388.863C378.022 390.865 378.373 392.373 379.075 393.387C379.803 394.401 381.155 394.908 383.131 394.908C386.563 394.908 388.708 393.335 389.566 390.189C389.592 390.059 389.605 389.942 389.605 389.838C389.605 389.734 389.618 389.656 389.644 389.604L390.814 389.058C390.788 389.292 390.736 389.643 390.658 390.111C390.606 390.579 390.541 391.203 390.463 391.983C390.463 392.243 390.463 392.529 390.463 392.841C390.463 393.153 390.45 393.504 390.424 393.894C390.346 394.232 390.138 394.531 389.8 394.791C389.202 395.363 388.227 395.779 386.875 396.039C385.549 396.325 383.898 396.468 381.922 396.468ZM380.947 384.3C381.233 384.3 381.545 384.3 381.883 384.3C382.247 384.3 382.624 384.287 383.014 384.261C384.106 384.235 385.042 384.196 385.822 384.144C386.628 384.092 387.278 384.04 387.772 383.988C388.188 383.91 388.435 383.533 388.513 382.857C388.513 381.453 388.136 380.374 387.382 379.62C386.628 378.84 385.549 378.45 384.145 378.45C381.415 378.45 379.634 379.698 378.802 382.194C378.698 382.558 378.607 382.883 378.529 383.169C378.477 383.455 378.425 383.78 378.373 384.144C378.633 384.196 378.971 384.235 379.387 384.261C379.829 384.287 380.349 384.3 380.947 384.3ZM406.201 396.312L406.942 395.025C407.384 395.051 407.865 394.96 408.385 394.752C408.905 394.518 409.256 394.18 409.438 393.738C409.594 393.426 409.711 392.997 409.789 392.451C409.893 391.905 409.984 391.229 410.062 390.423C410.192 388.655 410.283 387.277 410.335 386.289C410.413 385.301 410.465 384.573 410.491 384.105C410.517 383.637 410.53 383.286 410.53 383.052C410.53 380.14 409.568 378.684 407.644 378.684C407.02 378.684 406.435 378.775 405.889 378.957C405.369 379.139 404.849 379.36 404.329 379.62C403.263 380.166 402.457 380.764 401.911 381.414L401.638 385.275C401.534 386.783 401.456 388.096 401.404 389.214C401.378 390.332 401.365 391.268 401.365 392.022C401.365 392.36 401.365 392.659 401.365 392.919C401.365 393.153 401.378 393.361 401.404 393.543C401.508 394.609 402.509 395.129 404.407 395.103L403.783 396.273C403.159 396.013 401.781 395.87 399.649 395.844C399.441 395.844 398.791 395.883 397.699 395.961C396.633 396.039 395.138 396.143 393.214 396.273L393.799 395.181C396.295 395.181 397.712 394.635 398.05 393.543C398.18 393.101 398.323 392.204 398.479 390.852C398.635 389.5 398.804 387.628 398.986 385.236C399.038 384.56 399.077 383.936 399.103 383.364C399.129 382.766 399.142 382.22 399.142 381.726C399.142 380.634 399.09 379.828 398.986 379.308C398.882 378.788 398.609 378.463 398.167 378.333C397.751 378.177 397.062 378.099 396.1 378.099C395.788 378.099 395.515 378.112 395.281 378.138C395.047 378.164 394.826 378.216 394.618 378.294L395.281 377.124C395.359 377.15 395.736 377.189 396.412 377.241C397.114 377.267 397.946 377.28 398.908 377.28C399.506 377.28 400.078 377.267 400.624 377.241C401.196 377.189 401.625 377.163 401.911 377.163C402.301 377.163 402.496 377.358 402.496 377.748C402.496 377.956 402.431 378.294 402.301 378.762C402.171 379.204 402.106 379.503 402.106 379.659C402.574 379.373 403.003 379.126 403.393 378.918C403.809 378.684 404.186 378.45 404.524 378.216C405.876 377.254 407.397 376.773 409.087 376.773C409.555 376.773 409.984 376.812 410.374 376.89C412.532 377.202 413.611 378.216 413.611 379.932C413.611 380.374 413.585 380.881 413.533 381.453C413.481 382.025 413.442 382.649 413.416 383.325C413.39 383.585 413.351 384.105 413.299 384.885C413.273 385.639 413.234 386.484 413.182 387.42C413.156 388.33 413.13 389.149 413.104 389.877C413.078 390.605 413.065 391.073 413.065 391.281C413.065 392.425 413.117 393.27 413.221 393.816C413.351 394.362 413.676 394.713 414.196 394.869C414.716 395.025 415.548 395.116 416.692 395.142C417.238 395.142 417.641 395.116 417.901 395.064L417.238 396.234C416.25 396.13 415.288 396.052 414.352 396C413.416 395.948 412.506 395.922 411.622 395.922C410.894 395.948 410.075 395.987 409.165 396.039C408.255 396.091 407.267 396.182 406.201 396.312ZM426.469 396.663C425.169 396.663 424.09 396.416 423.232 395.922C422.374 395.428 421.945 394.596 421.945 393.426C421.945 392.88 421.971 392.126 422.023 391.164C422.075 390.202 422.14 389.149 422.218 388.005C422.296 386.835 422.361 385.691 422.413 384.573C422.465 383.429 422.491 382.402 422.491 381.492C422.491 381.128 422.478 380.79 422.452 380.478C422.452 380.166 422.439 379.893 422.413 379.659C422.309 378.723 421.516 378.255 420.034 378.255C419.8 378.255 419.553 378.268 419.293 378.294C419.059 378.32 418.864 378.346 418.708 378.372L419.371 377.202C420.255 377.306 421.126 377.384 421.984 377.436C422.842 377.488 423.687 377.514 424.519 377.514C425.351 377.514 426.157 377.488 426.937 377.436C427.743 377.384 428.536 377.319 429.316 377.241L428.653 378.333C428.601 378.333 428.536 378.333 428.458 378.333C428.406 378.307 428.354 378.294 428.302 378.294C427.548 378.294 426.976 378.528 426.586 378.996C426.196 379.438 425.923 380.023 425.767 380.751C425.611 381.479 425.507 382.246 425.455 383.052C425.325 384.82 425.221 386.198 425.143 387.186C425.091 388.174 425.052 388.889 425.026 389.331C425 389.773 424.987 390.098 424.987 390.306C424.987 393.27 425.949 394.752 427.873 394.752C428.549 394.752 429.264 394.622 430.018 394.362C430.772 394.076 431.474 393.725 432.124 393.309C432.8 392.867 433.294 392.438 433.606 392.022C433.814 389.24 433.957 387.03 434.035 385.392C434.139 383.728 434.191 382.428 434.191 381.492C434.191 381.154 434.178 380.855 434.152 380.595C434.152 380.335 434.139 380.101 434.113 379.893C433.983 378.801 432.982 378.268 431.11 378.294L431.812 377.319C431.89 377.397 432.176 377.462 432.67 377.514C433.19 377.54 433.775 377.566 434.425 377.592C435.075 377.592 435.634 377.592 436.102 377.592C437.012 377.592 437.948 377.553 438.91 377.475C439.872 377.397 440.548 377.345 440.938 377.319L440.431 378.333C440.197 378.255 439.976 378.216 439.768 378.216C438.572 378.216 437.818 378.775 437.506 379.893C437.35 380.413 437.207 381.115 437.077 381.999C436.947 382.857 436.843 383.806 436.765 384.846C436.687 385.886 436.622 386.939 436.57 388.005C436.544 389.045 436.531 389.994 436.531 390.852C436.531 391.19 436.531 391.515 436.531 391.827C436.531 392.113 436.544 392.386 436.57 392.646C436.622 393.556 436.843 394.193 437.233 394.557C437.623 394.895 438.208 395.064 438.988 395.064C439.3 395.064 439.638 395.038 440.002 394.986C440.392 394.934 440.795 394.882 441.211 394.83L440.275 396.234C439.885 396.234 439.287 396.221 438.481 396.195C437.701 396.169 436.843 396.156 435.907 396.156C435.335 396.156 434.828 396.182 434.386 396.234C433.944 396.286 433.697 396.312 433.645 396.312C433.463 396.312 433.307 396.26 433.177 396.156C433.073 396.078 433.034 395.961 433.06 395.805C433.138 395.389 433.203 394.986 433.255 394.596C433.333 394.206 433.385 393.933 433.411 393.777C432.267 394.453 431.344 395.012 430.642 395.454C429.966 395.87 429.329 396.169 428.731 396.351C428.133 396.559 427.379 396.663 426.469 396.663Z" fill="white"/>
<path d="M336.841 400.875H441.172V402.825H336.841V400.875Z" fill="white"/>
<line x1="314.607" y1="320.309" x2="226.607" y2="208.309" stroke="black"/>
<line x1="550.607" y1="567.309" x2="462.607" y2="455.309" stroke="black"/>
<line y1="-0.5" x2="142.436" y2="-0.5" transform="matrix(0.617822 -0.786318 -0.786318 -0.617822 463 320)" stroke="black"/>
<line y1="-0.5" x2="142.436" y2="-0.5" transform="matrix(0.617822 -0.786318 -0.786318 -0.617822 227 567)" stroke="black"/>
<path id="kontakt" d="M324.132 551.92H326.652C327.012 551.92 327.192 551.74 327.192 551.38V529.42C327.192 529.06 327.012 528.88 326.652 528.88H324.132C323.772 528.88 323.592 528.7 323.592 528.34C323.592 527.98 323.772 527.8 324.132 527.8H330.972C331.332 527.8 331.512 527.98 331.512 528.34C331.512 528.7 331.332 528.88 330.972 528.88H328.812C328.452 528.88 328.272 529.06 328.272 529.42V542.74L340.512 529.42C340.656 529.3 340.704 529.18 340.656 529.06C340.632 528.94 340.524 528.88 340.332 528.88H337.992C337.632 528.88 337.452 528.7 337.452 528.34C337.452 527.98 337.632 527.8 337.992 527.8H345.372C345.732 527.8 345.912 527.98 345.912 528.34C345.912 528.7 345.732 528.88 345.372 528.88H343.068C342.804 528.88 342.492 529.06 342.132 529.42L333.816 538.456L343.212 551.38C343.524 551.74 343.824 551.92 344.112 551.92H346.452C346.812 551.92 346.992 552.1 346.992 552.46C346.992 552.82 346.812 553 346.452 553H339.252C338.892 553 338.712 552.82 338.712 552.46C338.712 552.1 338.892 551.92 339.252 551.92H341.592C342.024 551.92 342.084 551.74 341.772 551.38L333.024 539.32L328.272 544.504V551.38C328.272 551.74 328.452 551.92 328.812 551.92H330.972C331.332 551.92 331.512 552.1 331.512 552.46C331.512 552.82 331.332 553 330.972 553H324.132C323.772 553 323.592 552.82 323.592 552.46C323.592 552.1 323.772 551.92 324.132 551.92ZM349.177 550.768C347.545 549.04 346.729 546.784 346.729 544C346.729 541.216 347.545 538.96 349.177 537.232C350.809 535.504 352.933 534.64 355.549 534.64C358.165 534.64 360.289 535.504 361.921 537.232C363.553 538.96 364.369 541.216 364.369 544C364.369 546.784 363.553 549.04 361.921 550.768C360.289 552.496 358.165 553.36 355.549 553.36C352.933 553.36 350.809 552.496 349.177 550.768ZM355.549 535.72C353.221 535.72 351.349 536.476 349.933 537.988C348.517 539.5 347.809 541.516 347.809 544.036C347.809 546.532 348.505 548.536 349.897 550.048C351.313 551.536 353.197 552.28 355.549 552.28C357.901 552.28 359.773 551.536 361.165 550.048C362.581 548.536 363.289 546.532 363.289 544.036C363.289 541.516 362.581 539.5 361.165 537.988C359.749 536.476 357.877 535.72 355.549 535.72ZM367.787 551.92H370.307C370.667 551.92 370.847 551.74 370.847 551.38V536.62C370.847 536.26 370.667 536.08 370.307 536.08H367.787C367.427 536.08 367.247 535.9 367.247 535.54C367.247 535.18 367.427 535 367.787 535H371.387C371.747 535 371.927 535.18 371.927 535.54V537.556C371.927 537.796 371.975 537.964 372.071 538.06C372.167 538.156 372.311 538.108 372.503 537.916C374.447 535.732 376.559 534.64 378.839 534.64C381.119 534.64 382.871 535.264 384.095 536.512C385.343 537.736 385.967 539.512 385.967 541.84V551.38C385.967 551.74 386.147 551.92 386.507 551.92H389.027C389.387 551.92 389.567 552.1 389.567 552.46C389.567 552.82 389.387 553 389.027 553H382.187C381.827 553 381.647 552.82 381.647 552.46C381.647 552.1 381.827 551.92 382.187 551.92H384.347C384.707 551.92 384.887 551.74 384.887 551.38V541.84C384.887 539.8 384.359 538.276 383.303 537.268C382.247 536.236 380.807 535.72 378.983 535.72C377.159 535.72 375.431 536.536 373.799 538.168C373.079 538.888 372.455 539.692 371.927 540.58V551.38C371.927 551.74 372.107 551.92 372.467 551.92H374.627C374.987 551.92 375.167 552.1 375.167 552.46C375.167 552.82 374.987 553 374.627 553H367.787C367.427 553 367.247 552.82 367.247 552.46C367.247 552.1 367.427 551.92 367.787 551.92ZM403.006 550.48C403.246 550.24 403.462 550.216 403.654 550.408C403.846 550.6 403.942 550.756 403.942 550.876C403.966 550.996 403.882 551.152 403.69 551.344C403.114 551.92 402.538 552.352 401.962 552.64C400.474 553.144 399.622 553.384 399.406 553.36C399.19 553.36 399.07 553.36 399.046 553.36C397.366 553.36 396.046 552.82 395.086 551.74C394.126 550.66 393.646 549.1 393.646 547.06V536.62C393.646 536.26 393.466 536.08 393.106 536.08H390.586C390.226 536.08 390.046 535.9 390.046 535.54C390.046 535.18 390.226 535 390.586 535H393.106C393.466 535 393.646 534.82 393.646 534.46V528.34C393.646 527.98 393.826 527.8 394.186 527.8C394.546 527.8 394.726 527.98 394.726 528.34V534.46C394.726 534.82 394.906 535 395.266 535H401.386C401.746 535 401.926 535.18 401.926 535.54C401.926 535.9 401.746 536.08 401.386 536.08H395.266C394.906 536.08 394.726 536.26 394.726 536.62V547.06C394.726 548.788 395.11 550.096 395.878 550.984C396.646 551.848 397.702 552.28 399.046 552.28C400.414 552.28 401.734 551.68 403.006 550.48ZM419.181 544.18C419.181 543.82 419.001 543.64 418.641 543.64H412.701C410.613 543.64 409.065 544.048 408.057 544.864C407.073 545.68 406.581 546.724 406.581 547.996C406.581 549.244 407.037 550.276 407.949 551.092C408.885 551.884 410.289 552.28 412.161 552.28C414.489 552.28 416.541 551.104 418.317 548.752C418.629 548.344 418.917 547.9 419.181 547.42V544.18ZM413.565 534.64C415.581 534.64 417.201 535.216 418.425 536.368C419.649 537.496 420.261 538.9 420.261 540.58V551.38C420.261 551.74 420.441 551.92 420.801 551.92H423.321C423.681 551.92 423.861 552.1 423.861 552.46C423.861 552.82 423.681 553 423.321 553H419.721C419.361 553 419.181 552.82 419.181 552.46V550.444C419.181 550.204 419.133 550.036 419.037 549.94C418.941 549.844 418.797 549.892 418.605 550.084C417.957 550.9 417.057 551.656 415.905 552.352C414.753 553.024 413.553 553.36 412.305 553.36C410.073 553.36 408.381 552.868 407.229 551.884C406.077 550.876 405.501 549.58 405.501 547.996C405.501 546.412 406.161 545.116 407.481 544.108C408.801 543.076 410.541 542.56 412.701 542.56H418.641C419.001 542.56 419.181 542.38 419.181 542.02V540.58C419.181 539.188 418.653 538.036 417.597 537.124C416.541 536.188 415.245 535.72 413.709 535.72C412.173 535.72 410.913 535.936 409.929 536.368C408.945 536.776 408.249 537.136 407.841 537.448C407.457 537.76 407.157 537.772 406.941 537.484C406.749 537.196 406.785 536.956 407.049 536.764C408.777 535.348 410.949 534.64 413.565 534.64ZM425.851 551.92H428.371C428.731 551.92 428.911 551.74 428.911 551.38V529.42C428.911 529.06 428.731 528.88 428.371 528.88H425.851C425.491 528.88 425.311 528.7 425.311 528.34C425.311 527.98 425.491 527.8 425.851 527.8H429.451C429.811 527.8 429.991 527.98 429.991 528.34V546.052L438.631 536.62C438.775 536.5 438.823 536.38 438.775 536.26C438.751 536.14 438.643 536.08 438.451 536.08H436.435C436.075 536.08 435.895 535.9 435.895 535.54C435.895 535.18 436.075 535 436.435 535H443.491C443.851 535 444.031 535.18 444.031 535.54C444.031 535.9 443.851 536.08 443.491 536.08H441.187C440.923 536.08 440.611 536.26 440.251 536.62L434.851 542.488L441.331 551.38C441.643 551.74 441.943 551.92 442.231 551.92H444.571C444.931 551.92 445.111 552.1 445.111 552.46C445.111 552.82 444.931 553 444.571 553H437.731C437.371 553 437.191 552.82 437.191 552.46C437.191 552.1 437.371 551.92 437.731 551.92H439.711C440.143 551.92 440.203 551.74 439.891 551.38L434.059 543.352L429.991 547.816V551.38C429.991 551.74 430.171 551.92 430.531 551.92H432.691C433.051 551.92 433.231 552.1 433.231 552.46C433.231 552.82 433.051 553 432.691 553H425.851C425.491 553 425.311 552.82 425.311 552.46C425.311 552.1 425.491 551.92 425.851 551.92ZM459.045 550.48C459.285 550.24 459.501 550.216 459.693 550.408C459.885 550.6 459.981 550.756 459.981 550.876C460.005 550.996 459.921 551.152 459.729 551.344C459.153 551.92 458.577 552.352 458.001 552.64C456.513 553.144 455.661 553.384 455.445 553.36C455.229 553.36 455.109 553.36 455.085 553.36C453.405 553.36 452.085 552.82 451.125 551.74C450.165 550.66 449.685 549.1 449.685 547.06V536.62C449.685 536.26 449.505 536.08 449.145 536.08H446.625C446.265 536.08 446.085 535.9 446.085 535.54C446.085 535.18 446.265 535 446.625 535H449.145C449.505 535 449.685 534.82 449.685 534.46V528.34C449.685 527.98 449.865 527.8 450.225 527.8C450.585 527.8 450.765 527.98 450.765 528.34V534.46C450.765 534.82 450.945 535 451.305 535H457.425C457.785 535 457.965 535.18 457.965 535.54C457.965 535.9 457.785 536.08 457.425 536.08H451.305C450.945 536.08 450.765 536.26 450.765 536.62V547.06C450.765 548.788 451.149 550.096 451.917 550.984C452.685 551.848 453.741 552.28 455.085 552.28C456.453 552.28 457.773 551.68 459.045 550.48Z" fill="black"/>
<path d="M316.636 230.92C316.276 230.92 316.096 231.1 316.096 231.46V239.38C316.096 239.74 316.276 239.92 316.636 239.92H319.516C319.876 239.92 320.056 240.1 320.056 240.46C320.056 240.82 319.876 241 319.516 241H311.956C311.596 241 311.416 240.82 311.416 240.46C311.416 240.1 311.596 239.92 311.956 239.92H314.476C314.836 239.92 315.016 239.74 315.016 239.38V217.42C315.016 217.06 314.836 216.88 314.476 216.88H311.956C311.596 216.88 311.416 216.7 311.416 216.34C311.416 215.98 311.596 215.8 311.956 215.8H324.016C326.392 215.8 328.18 216.448 329.38 217.744C330.604 219.016 331.216 220.888 331.216 223.36C331.216 225.832 330.604 227.716 329.38 229.012C328.18 230.284 326.392 230.92 324.016 230.92H316.636ZM324.016 229.84C328.096 229.84 330.136 227.68 330.136 223.36C330.136 219.04 328.096 216.88 324.016 216.88H316.636C316.276 216.88 316.096 217.06 316.096 217.42V229.3C316.096 229.66 316.276 229.84 316.636 229.84H324.016ZM347.517 223.72C344.493 223.72 341.973 224.908 339.957 227.284C339.381 227.956 338.901 228.628 338.517 229.3V239.38C338.517 239.74 338.697 239.92 339.057 239.92H341.937C342.297 239.92 342.477 240.1 342.477 240.46C342.477 240.82 342.297 241 341.937 241H334.377C334.017 241 333.837 240.82 333.837 240.46C333.837 240.1 334.017 239.92 334.377 239.92H336.897C337.257 239.92 337.437 239.74 337.437 239.38V224.62C337.437 224.26 337.257 224.08 336.897 224.08H334.377C334.017 224.08 333.837 223.9 333.837 223.54C333.837 223.18 334.017 223 334.377 223H337.977C338.337 223 338.517 223.18 338.517 223.54V226.384C338.517 226.984 338.769 226.996 339.273 226.42C340.161 225.412 341.313 224.536 342.729 223.792C344.169 223.024 345.765 222.64 347.517 222.64H349.281C349.641 222.64 349.821 222.82 349.821 223.18V227.68C349.821 228.04 349.641 228.22 349.281 228.22C348.921 228.22 348.741 228.04 348.741 227.68V224.26C348.741 223.9 348.561 223.72 348.201 223.72H347.517ZM355.071 238.768C353.439 237.04 352.623 234.784 352.623 232C352.623 229.216 353.439 226.96 355.071 225.232C356.703 223.504 358.827 222.64 361.443 222.64C364.059 222.64 366.183 223.504 367.815 225.232C369.447 226.96 370.263 229.216 370.263 232C370.263 234.784 369.447 237.04 367.815 238.768C366.183 240.496 364.059 241.36 361.443 241.36C358.827 241.36 356.703 240.496 355.071 238.768ZM361.443 223.72C359.115 223.72 357.243 224.476 355.827 225.988C354.411 227.5 353.703 229.516 353.703 232.036C353.703 234.532 354.399 236.536 355.791 238.048C357.207 239.536 359.091 240.28 361.443 240.28C363.795 240.28 365.667 239.536 367.059 238.048C368.475 236.536 369.183 234.532 369.183 232.036C369.183 229.516 368.475 227.5 367.059 225.988C365.643 224.476 363.771 223.72 361.443 223.72ZM375.481 219.724C375.217 219.436 375.085 219.088 375.085 218.68C375.085 218.272 375.217 217.936 375.481 217.672C375.769 217.384 376.117 217.24 376.525 217.24C376.933 217.24 377.269 217.384 377.533 217.672C377.821 217.936 377.965 218.272 377.965 218.68C377.965 219.088 377.821 219.436 377.533 219.724C377.269 219.988 376.933 220.12 376.525 220.12C376.117 220.12 375.769 219.988 375.481 219.724ZM371.881 247.48C373.225 247.48 374.269 247.036 375.013 246.148C375.781 245.284 376.165 243.988 376.165 242.26V224.62C376.165 224.26 375.985 224.08 375.625 224.08H373.105C372.745 224.08 372.565 223.9 372.565 223.54C372.565 223.18 372.745 223 373.105 223H376.705C377.065 223 377.245 223.18 377.245 223.54V242.26C377.245 244.3 376.765 245.86 375.805 246.94C374.869 248.02 373.501 248.56 371.701 248.56C369.901 248.56 368.413 247.876 367.237 246.508C367.069 246.34 366.985 246.184 366.985 246.04C366.985 245.896 367.045 245.776 367.165 245.68C367.405 245.44 367.693 245.476 368.029 245.788C369.253 246.916 370.537 247.48 371.881 247.48ZM396.689 238.48C397.073 238.192 397.361 237.952 397.553 237.76C397.769 237.568 397.937 237.508 398.057 237.58C398.177 237.628 398.321 237.76 398.489 237.976C398.681 238.168 398.633 238.384 398.345 238.624C397.481 239.368 396.485 240.016 395.357 240.568C394.229 241.096 392.789 241.36 391.037 241.36C388.493 241.36 386.441 240.484 384.881 238.732C383.345 236.98 382.577 234.736 382.577 232C382.577 229.264 383.345 227.02 384.881 225.268C386.441 223.516 388.469 222.64 390.965 222.64C393.485 222.64 395.537 223.432 397.121 225.016C398.705 226.6 399.497 228.508 399.497 230.74V231.28C399.497 232 399.137 232.36 398.417 232.36H384.233C383.825 232.36 383.645 232.54 383.693 232.9C383.837 234.988 384.545 236.74 385.817 238.156C387.113 239.572 388.877 240.28 391.109 240.28C393.365 240.28 395.225 239.68 396.689 238.48ZM383.729 230.848C383.729 231.136 383.897 231.28 384.233 231.28H397.877C398.237 231.28 398.417 231.1 398.417 230.74C398.417 228.82 397.709 227.176 396.293 225.808C394.901 224.416 393.125 223.72 390.965 223.72C388.829 223.72 387.089 224.476 385.745 225.988C384.401 227.5 383.729 229.12 383.729 230.848ZM402.355 239.92H404.875C405.235 239.92 405.415 239.74 405.415 239.38V217.42C405.415 217.06 405.235 216.88 404.875 216.88H402.355C401.995 216.88 401.815 216.7 401.815 216.34C401.815 215.98 401.995 215.8 402.355 215.8H405.955C406.315 215.8 406.495 215.98 406.495 216.34V234.052L415.135 224.62C415.279 224.5 415.327 224.38 415.279 224.26C415.255 224.14 415.147 224.08 414.955 224.08H412.939C412.579 224.08 412.399 223.9 412.399 223.54C412.399 223.18 412.579 223 412.939 223H419.995C420.355 223 420.535 223.18 420.535 223.54C420.535 223.9 420.355 224.08 419.995 224.08H417.691C417.427 224.08 417.115 224.26 416.755 224.62L411.355 230.488L417.835 239.38C418.147 239.74 418.447 239.92 418.735 239.92H421.075C421.435 239.92 421.615 240.1 421.615 240.46C421.615 240.82 421.435 241 421.075 241H414.235C413.875 241 413.695 240.82 413.695 240.46C413.695 240.1 413.875 239.92 414.235 239.92H416.215C416.647 239.92 416.707 239.74 416.395 239.38L410.563 231.352L406.495 235.816V239.38C406.495 239.74 406.675 239.92 407.035 239.92H409.195C409.555 239.92 409.735 240.1 409.735 240.46C409.735 240.82 409.555 241 409.195 241H402.355C401.995 241 401.815 240.82 401.815 240.46C401.815 240.1 401.995 239.92 402.355 239.92ZM435.549 238.48C435.789 238.24 436.005 238.216 436.197 238.408C436.389 238.6 436.485 238.756 436.485 238.876C436.509 238.996 436.425 239.152 436.233 239.344C435.657 239.92 435.081 240.352 434.505 240.64C433.017 241.144 432.165 241.384 431.949 241.36C431.733 241.36 431.613 241.36 431.589 241.36C429.909 241.36 428.589 240.82 427.629 239.74C426.669 238.66 426.189 237.1 426.189 235.06V224.62C426.189 224.26 426.009 224.08 425.649 224.08H423.129C422.769 224.08 422.589 223.9 422.589 223.54C422.589 223.18 422.769 223 423.129 223H425.649C426.009 223 426.189 222.82 426.189 222.46V216.34C426.189 215.98 426.369 215.8 426.729 215.8C427.089 215.8 427.269 215.98 427.269 216.34V222.46C427.269 222.82 427.449 223 427.809 223H433.929C434.289 223 434.469 223.18 434.469 223.54C434.469 223.9 434.289 224.08 433.929 224.08H427.809C427.449 224.08 427.269 224.26 427.269 224.62V235.06C427.269 236.788 427.653 238.096 428.421 238.984C429.189 239.848 430.245 240.28 431.589 240.28C432.957 240.28 434.277 239.68 435.549 238.48ZM452.552 238.48C452.936 238.192 453.224 237.952 453.416 237.76C453.632 237.568 453.8 237.508 453.92 237.58C454.04 237.628 454.184 237.76 454.352 237.976C454.544 238.168 454.496 238.384 454.208 238.624C453.344 239.368 452.348 240.016 451.22 240.568C450.092 241.096 448.652 241.36 446.9 241.36C444.356 241.36 442.304 240.484 440.744 238.732C439.208 236.98 438.44 234.736 438.44 232C438.44 229.264 439.208 227.02 440.744 225.268C442.304 223.516 444.332 222.64 446.828 222.64C449.348 222.64 451.4 223.432 452.984 225.016C454.568 226.6 455.36 228.508 455.36 230.74V231.28C455.36 232 455 232.36 454.28 232.36H440.096C439.688 232.36 439.508 232.54 439.556 232.9C439.7 234.988 440.408 236.74 441.68 238.156C442.976 239.572 444.74 240.28 446.972 240.28C449.228 240.28 451.088 239.68 452.552 238.48ZM439.592 230.848C439.592 231.136 439.76 231.28 440.096 231.28H453.74C454.1 231.28 454.28 231.1 454.28 230.74C454.28 228.82 453.572 227.176 452.156 225.808C450.764 224.416 448.988 223.72 446.828 223.72C444.692 223.72 442.952 224.476 441.608 225.988C440.264 227.5 439.592 229.12 439.592 230.848ZM471.97 223.72C468.946 223.72 466.426 224.908 464.41 227.284C463.834 227.956 463.354 228.628 462.97 229.3V239.38C462.97 239.74 463.15 239.92 463.51 239.92H466.39C466.75 239.92 466.93 240.1 466.93 240.46C466.93 240.82 466.75 241 466.39 241H458.83C458.47 241 458.29 240.82 458.29 240.46C458.29 240.1 458.47 239.92 458.83 239.92H461.35C461.71 239.92 461.89 239.74 461.89 239.38V224.62C461.89 224.26 461.71 224.08 461.35 224.08H458.83C458.47 224.08 458.29 223.9 458.29 223.54C458.29 223.18 458.47 223 458.83 223H462.43C462.79 223 462.97 223.18 462.97 223.54V226.384C462.97 226.984 463.222 226.996 463.726 226.42C464.614 225.412 465.766 224.536 467.182 223.792C468.622 223.024 470.218 222.64 471.97 222.64H473.734C474.094 222.64 474.274 222.82 474.274 223.18V227.68C474.274 228.04 474.094 228.22 473.734 228.22C473.374 228.22 473.194 228.04 473.194 227.68V224.26C473.194 223.9 473.014 223.72 472.654 223.72H471.97Z" fill="black"/>
<path d="M503.597 394.724C501.389 392.276 500.285 389.168 500.285 385.4C500.285 381.632 501.389 378.536 503.597 376.112C505.805 373.664 508.721 372.44 512.345 372.44C515.969 372.44 518.885 373.664 521.093 376.112C523.301 378.536 524.405 381.632 524.405 385.4C524.405 389.168 523.301 392.276 521.093 394.724C518.885 397.148 515.969 398.36 512.345 398.36C508.721 398.36 505.805 397.148 503.597 394.724ZM504.389 376.868C502.373 379.1 501.365 381.944 501.365 385.4C501.365 388.856 502.373 391.7 504.389 393.932C506.405 396.164 509.057 397.28 512.345 397.28C515.633 397.28 518.285 396.164 520.301 393.932C522.317 391.7 523.325 388.856 523.325 385.4C523.325 381.944 522.317 379.1 520.301 376.868C518.285 374.636 515.633 373.52 512.345 373.52C509.057 373.52 506.405 374.636 504.389 376.868ZM528.123 396.92H530.643C531.003 396.92 531.183 396.74 531.183 396.38V381.62C531.183 381.26 531.003 381.08 530.643 381.08H528.123C527.763 381.08 527.583 380.9 527.583 380.54C527.583 380.18 527.763 380 528.123 380H531.723C532.083 380 532.263 380.18 532.263 380.54V382.556C532.263 383.18 532.455 383.3 532.839 382.916C534.711 380.732 536.559 379.64 538.383 379.64C539.775 379.64 540.987 380.036 542.019 380.828C543.051 381.62 543.771 382.76 544.179 384.248C544.659 383.408 545.235 382.64 545.907 381.944C547.395 380.408 549.003 379.64 550.731 379.64C552.459 379.64 553.887 380.276 555.015 381.548C556.167 382.796 556.743 384.56 556.743 386.84V396.38C556.743 396.74 556.923 396.92 557.283 396.92H559.803C560.163 396.92 560.343 397.1 560.343 397.46C560.343 397.82 560.163 398 559.803 398H552.963C552.603 398 552.423 397.82 552.423 397.46C552.423 397.1 552.603 396.92 552.963 396.92H555.123C555.483 396.92 555.663 396.74 555.663 396.38V386.84C555.663 384.872 555.183 383.36 554.223 382.304C553.263 381.248 552.051 380.72 550.587 380.72C549.123 380.72 547.647 381.56 546.159 383.24C545.487 384.008 544.911 384.848 544.431 385.76C544.479 386.288 544.503 386.648 544.503 386.84V396.38C544.503 396.74 544.683 396.92 545.043 396.92H547.203C547.563 396.92 547.743 397.1 547.743 397.46C547.743 397.82 547.563 398 547.203 398H540.723C540.363 398 540.183 397.82 540.183 397.46C540.183 397.1 540.363 396.92 540.723 396.92H542.883C543.243 396.92 543.423 396.74 543.423 396.38V386.84C543.423 384.872 542.943 383.36 541.983 382.304C541.023 381.248 539.811 380.72 538.347 380.72C536.907 380.72 535.467 381.536 534.027 383.168C533.403 383.864 532.815 384.668 532.263 385.58V396.38C532.263 396.74 532.443 396.92 532.803 396.92H534.963C535.323 396.92 535.503 397.1 535.503 397.46C535.503 397.82 535.323 398 534.963 398H528.123C527.763 398 527.583 397.82 527.583 397.46C527.583 397.1 527.763 396.92 528.123 396.92ZM573.096 396.92H575.616C575.976 396.92 576.156 396.74 576.156 396.38V374.42C576.156 374.06 575.976 373.88 575.616 373.88H573.096C572.736 373.88 572.556 373.7 572.556 373.34C572.556 372.98 572.736 372.8 573.096 372.8H577.056C577.488 372.8 577.788 372.98 577.956 373.34L588.036 395.66C588.276 396.14 588.516 396.14 588.756 395.66L598.836 373.34C599.004 372.98 599.304 372.8 599.736 372.8H603.696C604.056 372.8 604.236 372.98 604.236 373.34C604.236 373.7 604.056 373.88 603.696 373.88H601.176C600.816 373.88 600.636 374.06 600.636 374.42V396.38C600.636 396.74 600.816 396.92 601.176 396.92H603.696C604.056 396.92 604.236 397.1 604.236 397.46C604.236 397.82 604.056 398 603.696 398H596.856C596.496 398 596.316 397.82 596.316 397.46C596.316 397.1 596.496 396.92 596.856 396.92H599.016C599.376 396.92 599.556 396.74 599.556 396.38V375.32C599.556 375.08 599.508 374.984 599.412 375.032C599.364 375.032 599.316 375.068 599.268 375.14L589.188 397.46C588.996 397.82 588.732 398 588.396 398C588.06 398 587.796 397.82 587.604 397.46L577.524 375.14C577.428 374.996 577.356 374.96 577.308 375.032C577.26 375.104 577.236 375.2 577.236 375.32V396.38C577.236 396.74 577.416 396.92 577.776 396.92H579.936C580.296 396.92 580.476 397.1 580.476 397.46C580.476 397.82 580.296 398 579.936 398H573.096C572.736 398 572.556 397.82 572.556 397.46C572.556 397.1 572.736 396.92 573.096 396.92ZM607.577 398C607.217 398 607.037 397.82 607.037 397.46C607.037 397.1 607.217 396.92 607.577 396.92H610.097C610.457 396.92 610.637 396.74 610.637 396.38V381.62C610.637 381.26 610.457 381.08 610.097 381.08H607.577C607.217 381.08 607.037 380.9 607.037 380.54C607.037 380.18 607.217 380 607.577 380H611.177C611.537 380 611.717 380.18 611.717 380.54V396.38C611.717 396.74 611.897 396.92 612.257 396.92H614.777C615.137 396.92 615.317 397.1 615.317 397.46C615.317 397.82 615.137 398 614.777 398H607.577ZM609.953 376.724C609.689 376.436 609.557 376.088 609.557 375.68C609.557 375.272 609.689 374.936 609.953 374.672C610.241 374.384 610.589 374.24 610.997 374.24C611.405 374.24 611.741 374.384 612.005 374.672C612.293 374.936 612.437 375.272 612.437 375.68C612.437 376.088 612.293 376.436 612.005 376.724C611.741 376.988 611.405 377.12 610.997 377.12C610.589 377.12 610.241 376.988 609.953 376.724ZM634.546 399.98C634.546 396.98 631.786 395.48 626.266 395.48C620.746 395.48 617.986 396.98 617.986 399.98C617.986 402.98 620.746 404.48 626.266 404.48C630.61 404.48 633.238 403.568 634.15 401.744C634.438 401.192 634.57 400.604 634.546 399.98ZM626.266 391.16C628.69 391.16 630.43 390.704 631.486 389.792C632.566 388.856 633.106 387.584 633.106 385.976C633.106 384.344 632.566 383.06 631.486 382.124C630.43 381.188 628.69 380.72 626.266 380.72C623.842 380.72 622.09 381.188 621.01 382.124C619.954 383.06 619.426 384.344 619.426 385.976C619.426 387.584 619.954 388.856 621.01 389.792C622.09 390.704 623.842 391.16 626.266 391.16ZM618.886 392.996C618.886 393.932 619.846 394.4 621.766 394.4H626.266C631.09 394.4 634.042 395.504 635.122 397.712C635.458 398.384 635.626 399.14 635.626 399.98C635.65 402.644 633.982 404.36 630.622 405.128C629.422 405.416 627.97 405.56 626.266 405.56C621.442 405.56 618.49 404.456 617.41 402.248C617.074 401.576 616.906 400.82 616.906 399.98C616.906 399.164 617.134 398.36 617.59 397.568C618.07 396.776 618.742 396.164 619.606 395.732C619.774 395.66 619.858 395.564 619.858 395.444C619.858 395.3 619.702 395.18 619.39 395.084C619.078 394.964 618.742 394.712 618.382 394.328C617.998 393.944 617.806 393.464 617.806 392.888C617.806 391.952 618.442 391.208 619.714 390.656C620.026 390.488 620.014 390.212 619.678 389.828C618.814 388.868 618.37 387.512 618.346 385.76C618.346 383.984 619.006 382.52 620.326 381.368C621.67 380.216 623.554 379.64 625.978 379.64C628.402 379.64 630.298 380.084 631.666 380.972C632.434 380.204 633.394 379.82 634.546 379.82H636.886C637.246 379.82 637.426 380 637.426 380.36V384.5C637.426 384.86 637.246 385.04 636.886 385.04C636.526 385.04 636.346 384.86 636.346 384.5V381.26C636.346 380.9 636.166 380.72 635.806 380.72H634.546C634.042 380.72 633.478 380.876 632.854 381.188C632.566 381.476 632.554 381.74 632.818 381.98C633.73 383.06 634.186 384.464 634.186 386.192C634.186 387.92 633.514 389.36 632.17 390.512C630.85 391.664 628.99 392.24 626.59 392.24C624.19 392.24 622.39 391.856 621.19 391.088C620.494 391.28 619.93 391.508 619.498 391.772C619.09 392.036 618.886 392.444 618.886 392.996Z" fill="black"/>
<path d="M175.547 385.4C175.547 381.656 176.603 378.56 178.715 376.112C180.827 373.664 183.551 372.44 186.887 372.44C189.791 372.44 192.419 373.46 194.771 375.5C195.155 375.812 195.347 375.692 195.347 375.14V373.34C195.347 372.98 195.527 372.8 195.887 372.8C196.247 372.8 196.427 372.98 196.427 373.34V380.18C196.427 380.54 196.247 380.72 195.887 380.72C195.527 380.72 195.347 380.54 195.347 380.18V377.66C194.699 376.916 193.943 376.232 193.079 375.608C191.111 374.216 189.047 373.52 186.887 373.52C183.935 373.52 181.487 374.66 179.543 376.94C177.599 379.196 176.627 382.04 176.627 385.472C176.627 388.88 177.635 391.7 179.651 393.932C181.667 396.164 184.355 397.28 187.715 397.28C191.075 397.28 193.787 396.188 195.851 394.004C196.091 393.764 196.307 393.74 196.499 393.932C196.691 394.124 196.787 394.28 196.787 394.4C196.787 394.52 196.727 394.64 196.607 394.76C194.159 397.16 191.135 398.36 187.535 398.36C183.959 398.36 181.067 397.136 178.859 394.688C176.651 392.24 175.547 389.144 175.547 385.4ZM198.67 372.8H205.51C205.87 372.8 206.05 372.98 206.05 373.34C206.05 373.7 205.87 373.88 205.51 373.88H203.35C202.942 373.88 202.822 374.06 202.99 374.42L211.306 396.02C211.354 396.164 211.426 396.236 211.522 396.236C211.618 396.236 211.69 396.164 211.738 396.02L220.054 374.42C220.222 374.06 220.102 373.88 219.694 373.88H217.534C217.174 373.88 216.994 373.7 216.994 373.34C216.994 372.98 217.174 372.8 217.534 372.8H224.374C224.734 372.8 224.914 372.98 224.914 373.34C224.914 373.7 224.734 373.88 224.374 373.88H222.034C221.746 373.88 221.506 374.06 221.314 374.42L212.314 397.82C212.218 398.18 211.954 398.36 211.522 398.36C211.09 398.36 210.826 398.18 210.73 397.82L201.73 374.42C201.538 374.06 201.298 373.88 201.01 373.88H198.67C198.31 373.88 198.13 373.7 198.13 373.34C198.13 372.98 198.31 372.8 198.67 372.8Z" fill="black"/>
<path d="M671.699 388.5C670.674 388.5 669.82 388.116 669.136 387.347C668.453 386.578 668.183 385.681 668.325 384.656L668.88 380.471C669.108 378.848 669.848 377.502 671.101 376.434C672.354 375.366 673.82 374.832 675.5 374.833C677.18 374.833 678.646 375.367 679.899 376.436C681.152 377.504 681.892 378.849 682.12 380.471L682.675 384.656C682.817 385.681 682.547 386.578 681.864 387.347C681.18 388.116 680.326 388.5 679.301 388.5H671.699ZM671.699 385.083H679.301L678.746 380.983C678.632 380.186 678.269 379.531 677.658 379.019C677.046 378.506 676.327 378.25 675.5 378.25C674.674 378.25 673.955 378.506 673.342 379.019C672.73 379.531 672.367 380.186 672.254 380.983L671.699 385.083ZM661.833 402.167V397.383C661.833 396.415 662.083 395.526 662.582 394.715C663.08 393.904 663.742 393.284 664.567 392.856C666.332 391.974 668.126 391.312 669.948 390.871C671.77 390.43 673.621 390.209 675.5 390.208C677.379 390.208 679.23 390.429 681.052 390.871C682.874 391.313 684.668 391.975 686.433 392.856C687.259 393.283 687.921 393.903 688.42 394.715C688.919 395.527 689.168 396.416 689.167 397.383V402.167H661.833ZM665.25 398.75H685.75V397.383C685.75 397.07 685.672 396.785 685.516 396.529C685.36 396.273 685.153 396.074 684.896 395.931C683.358 395.163 681.807 394.586 680.241 394.202C678.675 393.819 677.094 393.626 675.5 393.625C673.906 393.625 672.325 393.817 670.759 394.202C669.193 394.587 667.642 395.164 666.104 395.931C665.848 396.074 665.641 396.273 665.484 396.529C665.327 396.785 665.249 397.07 665.25 397.383V398.75Z" fill="black"/>
<path d="M379.884 599.458C379.098 599.458 378.442 599.195 377.916 598.669C377.389 598.142 377.125 597.485 377.125 596.699V578.301C377.125 577.515 377.389 576.859 377.916 576.333C378.442 575.805 379.098 575.542 379.884 575.542H405.116C405.902 575.542 406.558 575.805 407.084 576.333C407.611 576.859 407.875 577.515 407.875 578.301V596.699C407.875 597.485 407.612 598.141 407.086 598.667C406.558 599.195 405.902 599.458 405.116 599.458H379.884ZM392.5 587.696L378.833 578.762V596.699C378.833 597.006 378.932 597.257 379.129 597.454C379.326 597.651 379.578 597.75 379.884 597.75H405.116C405.422 597.75 405.674 597.651 405.871 597.454C406.068 597.257 406.167 597.006 406.167 596.699V578.762L392.5 587.696ZM392.5 585.792L405.64 577.25H379.36L392.5 585.792ZM378.833 578.762V577.25V596.699C378.833 597.006 378.932 597.257 379.129 597.454C379.326 597.651 379.578 597.75 379.884 597.75H378.833V578.762Z" fill="black"/>
<path fill-rule="evenodd" clip-rule="evenodd" d="M377.125 163.406C376.785 163.406 376.459 163.541 376.219 163.782C375.979 164.022 375.844 164.348 375.844 164.688V167.25C375.844 167.59 375.979 167.916 376.219 168.156C376.459 168.396 376.785 168.531 377.125 168.531H379.688C380.027 168.531 380.353 168.396 380.593 168.156C380.834 167.916 380.969 167.59 380.969 167.25V164.688C380.969 164.348 380.834 164.022 380.593 163.782C380.353 163.541 380.027 163.406 379.688 163.406H377.125ZM379.688 164.688H377.125V167.25H379.688V164.688Z" fill="black"/>
<path d="M384.812 165.969C384.812 165.629 384.947 165.303 385.188 165.063C385.428 164.822 385.754 164.688 386.094 164.688H409.156C409.496 164.688 409.822 164.822 410.062 165.063C410.303 165.303 410.438 165.629 410.438 165.969C410.438 166.309 410.303 166.634 410.062 166.875C409.822 167.115 409.496 167.25 409.156 167.25H386.094C385.754 167.25 385.428 167.115 385.188 166.875C384.947 166.634 384.812 166.309 384.812 165.969ZM386.094 174.938C385.754 174.938 385.428 175.072 385.188 175.313C384.947 175.553 384.812 175.879 384.812 176.219C384.812 176.559 384.947 176.884 385.188 177.125C385.428 177.365 385.754 177.5 386.094 177.5H409.156C409.496 177.5 409.822 177.365 410.062 177.125C410.303 176.884 410.438 176.559 410.438 176.219C410.438 175.879 410.303 175.553 410.062 175.313C409.822 175.072 409.496 174.938 409.156 174.938H386.094ZM386.094 185.188C385.754 185.188 385.428 185.322 385.188 185.563C384.947 185.803 384.812 186.129 384.812 186.469C384.812 186.809 384.947 187.134 385.188 187.375C385.428 187.615 385.754 187.75 386.094 187.75H409.156C409.496 187.75 409.822 187.615 410.062 187.375C410.303 187.134 410.438 186.809 410.438 186.469C410.438 186.129 410.303 185.803 410.062 185.563C409.822 185.322 409.496 185.188 409.156 185.188H386.094Z" fill="black"/>
<path fill-rule="evenodd" clip-rule="evenodd" d="M375.844 174.938C375.844 174.598 375.979 174.272 376.219 174.032C376.459 173.791 376.785 173.656 377.125 173.656H379.688C380.027 173.656 380.353 173.791 380.593 174.032C380.834 174.272 380.969 174.598 380.969 174.938V177.5C380.969 177.84 380.834 178.166 380.593 178.406C380.353 178.646 380.027 178.781 379.688 178.781H377.125C376.785 178.781 376.459 178.646 376.219 178.406C375.979 178.166 375.844 177.84 375.844 177.5V174.938ZM377.125 174.938H379.688V177.5H377.125V174.938ZM377.125 183.906C376.785 183.906 376.459 184.041 376.219 184.282C375.979 184.522 375.844 184.848 375.844 185.188V187.75C375.844 188.09 375.979 188.416 376.219 188.656C376.459 188.896 376.785 189.031 377.125 189.031H379.688C380.027 189.031 380.353 188.896 380.593 188.656C380.834 188.416 380.969 188.09 380.969 187.75V185.188C380.969 184.848 380.834 184.522 380.593 184.282C380.353 184.041 380.027 183.906 379.688 183.906H377.125ZM379.688 185.188H377.125V187.75H379.688V185.188Z" fill="black"/>
<path d="M139.758 371.286L118.897 367.603C118.228 367.485 117.54 367.638 116.983 368.027C116.427 368.417 116.048 369.012 115.93 369.681L111.165 396.748C111.107 397.079 111.114 397.419 111.187 397.748C111.261 398.076 111.398 398.387 111.591 398.663C111.784 398.939 112.03 399.173 112.314 399.354C112.598 399.535 112.915 399.657 113.247 399.715L134.107 403.399C134.439 403.458 134.779 403.45 135.108 403.377C135.437 403.304 135.748 403.167 136.024 402.974C136.299 402.78 136.534 402.534 136.715 402.25C136.896 401.966 137.019 401.649 137.077 401.317L141.841 374.251C141.958 373.581 141.804 372.893 141.413 372.337C141.023 371.781 140.427 371.403 139.758 371.286ZM134.549 400.875L113.687 397.191L118.452 370.125L139.312 373.809L134.549 400.875ZM120.308 374.356C120.368 374.022 120.557 373.725 120.836 373.53C121.114 373.335 121.459 373.259 121.793 373.319L135.086 375.665C135.402 375.72 135.686 375.892 135.881 376.146C136.076 376.401 136.169 376.719 136.141 377.039C136.113 377.358 135.967 377.655 135.73 377.872C135.493 378.089 135.184 378.208 134.863 378.208C134.788 378.208 134.713 378.202 134.639 378.189L121.346 375.841C121.012 375.782 120.715 375.592 120.52 375.313C120.325 375.035 120.249 374.691 120.308 374.356ZM119.421 379.404C119.45 379.239 119.512 379.08 119.602 378.938C119.693 378.796 119.81 378.674 119.948 378.577C120.086 378.481 120.241 378.412 120.406 378.376C120.57 378.339 120.74 378.336 120.906 378.365L134.199 380.713C134.517 380.766 134.803 380.937 135.001 381.192C135.198 381.448 135.292 381.768 135.264 382.089C135.235 382.41 135.087 382.709 134.848 382.926C134.609 383.143 134.297 383.261 133.974 383.258C133.899 383.258 133.823 383.251 133.749 383.237L120.456 380.891C120.121 380.831 119.825 380.64 119.631 380.362C119.437 380.083 119.361 379.739 119.421 379.404ZM118.532 384.451C118.593 384.117 118.783 383.821 119.061 383.628C119.339 383.434 119.683 383.359 120.017 383.418L126.66 384.586C126.976 384.641 127.26 384.813 127.455 385.067C127.65 385.321 127.743 385.639 127.715 385.958C127.688 386.278 127.541 386.575 127.305 386.792C127.069 387.009 126.76 387.129 126.439 387.129C126.364 387.129 126.289 387.122 126.215 387.11L119.568 385.936C119.234 385.876 118.937 385.686 118.743 385.408C118.549 385.129 118.473 384.785 118.532 384.451Z" fill="black"/>
</svg>